<?xml version="1.0" encoding="utf-8"?>
<!-- Generator: Adobe Illustrator 24.0.0, SVG Export Plug-In . SVG Version: 6.00 Build 0)  -->
<svg version="1.1" id="Layer_1" xmlns="http://www.w3.org/2000/svg" xmlns:xlink="http://www.w3.org/1999/xlink" x="0px" y="0px"
	 viewBox="0 0 58 58" style="enable-background:new 0 0 58 58;" xml:space="preserve">
<style type="text/css">
	.st0{fill:#4A8F69;}
</style>
<title>circuit</title>
<path class="st0" d="M29,0C13,0,0,13,0,29c0,16,13,29,29,29c16,0,29-13,29-29C58,13,45,0,29,0z M24.1,55.5c-1-0.1-1.9-0.4-2.7-0.8
	V34c0-3-2.4-4.6-5.4-4.6h-1.7c-0.7-2.2-3-3.5-5.2-2.9c-2.2,0.7-3.5,3-2.9,5.2s3,3.5,5.2,2.9c1.5-0.5,2.7-1.7,3-3.3H16
	c1.9,0,3.5,0.8,3.5,2.7v19.9C10.7,51,2.2,41.2,2.2,28.9c0-1.6,0.1-3.1,0.4-4.6h18c1.9,0,3.5,1.6,3.5,3.5L24.1,55.5z M12.4,30v1.3
	c-0.4,1.2-1.6,1.9-2.9,1.6c-1-0.3-1.7-1.2-1.7-2.2c0-1.3,1-2.3,2.3-2.3C11.2,28.3,12.1,29,12.4,30z M36.2,55V37.5
	c0-1.9,1.6-3.5,3.5-3.5h3.8c0.4,2.3,2.6,3.8,4.9,3.4c2.3-0.4,3.8-2.6,3.4-4.9c-0.4-2.3-2.6-3.8-4.9-3.4c-1.6,0.3-2.9,1.4-3.3,3h-3.9
	c-3,0-5.4,2.4-5.4,5.4v17.9c-1.1,0.3-2.3,0.4-3.5,0.4V20.6c0-3-2.4-5.4-5.4-5.4h-3.9c-0.7-2.2-3-3.5-5.2-2.9s-3.5,3-2.9,5.2
	c0.7,2.2,3,3.5,5.2,2.9c1.5-0.5,2.7-1.7,3-3.3h3.8c1.9,0,3.5,1.6,3.5,3.5v35.2c-0.6,0-2.3,0-2.9-0.1V27.9c0-3-2.4-5.4-5.4-5.4H3
	C6,10.6,16.7,2.2,29,2.2c1.7,0,3.4,0.1,5.1,0.4v13.3c0,3,2.4,5.4,5.4,5.4h3.9c0.7,2.2,3,3.5,5.2,2.9c2.2-0.7,3.5-3,2.9-5.2
	s-3-3.5-5.2-2.9c-1.5,0.5-2.7,1.7-3,3.3h-3.8c-1.9,0-3.5-1.6-3.5-3.5V3.1c12.2,2.5,19.8,13,19.8,26C55.8,41.9,47,52.9,36.2,55z
	 M45.2,33.2c0-1.4,1.1-2.5,2.5-2.5c1.4,0,2.5,1.1,2.5,2.5c0,1.4-1.1,2.5-2.5,2.5C46.3,35.7,45.2,34.5,45.2,33.2z M19.9,16.5
	c0,1.4-1.1,2.5-2.5,2.5c-1.4,0-2.5-1.1-2.5-2.5c0-1.4,1.1-2.5,2.5-2.5C18.8,14,19.9,15.1,19.9,16.5z M45.2,20.7v-1.3
	c0.4-1.2,1.6-1.9,2.9-1.6c1.2,0.4,1.9,1.6,1.6,2.9c-0.4,1.2-1.6,1.9-2.9,1.6C46,22.1,45.4,21.5,45.2,20.7z"/>
</svg>
