<?xml version="1.0" encoding="utf-8"?>
<svg id="Layer_1" data-name="Layer 1" xmlns="http://www.w3.org/2000/svg" xmlns:xlink="http://www.w3.org/1999/xlink" viewBox="0 0 110 120"><defs><style>.cls-1{fill:url(#linear-gradient);}.cls-2{fill:url(#linear-gradient-2);}.cls-3{fill:url(#linear-gradient-3);}</style><linearGradient id="linear-gradient" x1="85.88" y1="97.94" x2="101.29" y2="97.94" gradientUnits="userSpaceOnUse"><stop offset="0" stop-color="#00adf0"/><stop offset="1" stop-color="#04adef"/></linearGradient><linearGradient id="linear-gradient-2" x1="80.21" y1="98.63" x2="108.6" y2="98.63" xlink:href="#linear-gradient"/><linearGradient id="linear-gradient-3" x1="1.4" y1="60" x2="108.28" y2="60" xlink:href="#linear-gradient"/></defs><title>icons</title><path class="cls-1" d="M86.77,102.45l-.89,3A11.95,11.95,0,0,0,100.6,90l-2.91,1a8.87,8.87,0,0,1-10.92,11.46Z"/><path class="cls-2" d="M103.21,85.63a16.18,16.18,0,0,1-21.54,22.58l-1.46,2.72A19.27,19.27,0,0,0,105.85,84Z"/><path class="cls-3" d="M107.8,69A30.87,30.87,0,0,0,79.28,61.3L65.4,48.06l3.19-3.35,6,5.67a1.53,1.53,0,0,0,2.18-.05l27-28.27a1.56,1.56,0,0,0-.05-2.18L89.49,6.4a1.54,1.54,0,0,0-2.18,0l-27,28.28a1.53,1.53,0,0,0,0,2.18l6,5.67-3.2,3.35L46.05,29.61a1.55,1.55,0,0,0-2.18.06l-2,2.13-3.78-3.6a1.54,1.54,0,0,0-2.18.05L21.15,43.69a1.54,1.54,0,0,0,.05,2.18L25,49.48l-2,2.14a1.53,1.53,0,0,0-.42,1.1A1.58,1.58,0,0,0,23,53.8L40.11,70.11l-3.19,3.35-6-5.68a1.57,1.57,0,0,0-1.11-.42,1.52,1.52,0,0,0-1.07.48l-27,28.27a1.56,1.56,0,0,0-.43,1.1,1.52,1.52,0,0,0,.48,1.08L16,111.77a1.56,1.56,0,0,0,2.18,0l27-28.28a1.54,1.54,0,0,0,0-2.18l-6-5.67,3.19-3.35L56.23,85.48A31.57,31.57,0,0,0,55.69,92a30.65,30.65,0,0,0,9.55,21.58,1.53,1.53,0,0,0,2.18,0l40.44-42.41A1.55,1.55,0,0,0,107.8,69ZM88.48,9.69,100.38,21,75.55,47.09,63.65,35.74ZM17,108.47,5.12,97.12,30,71.08,41.86,82.43Zm7.41-63.76L37,31.49,39.7,34,27.11,47.25Zm1.8,7.92,2-2.14h0l7.36-7.72L45,32.91,75.89,62.32a31,31,0,0,0-6.27,3.16h0c-.45.29-.9.61-1.33.93l-.21.15c-.37.28-.73.56-1.09.86l-.3.24c-.33.28-.65.57-1,.87l-.3.27c-.41.39-.81.78-1.2,1.19s-.76.82-1.12,1.25c-.1.11-.18.22-.27.33-.28.33-.55.66-.81,1l-.24.31c-.27.37-.54.75-.8,1.13l-.14.21c-.3.45-.59.91-.86,1.37l0,0A31.11,31.11,0,0,0,57.09,82Zm40,57.65a27.85,27.85,0,0,1-6.87-25s0,0,0,0A27.47,27.47,0,0,1,63.36,76a3.62,3.62,0,0,1,.22-.32c.12-.19.25-.38.38-.56l.57-.77.28-.34.56-.69c.08-.09.16-.19.25-.28q.39-.47.81-.9c.28-.3.57-.58.86-.86l.28-.26.64-.58.4-.35.68-.56.55-.43.29-.21a27.75,27.75,0,0,1,9.11-4.39l.07,0a28,28,0,0,1,6.55-.94,27.55,27.55,0,0,1,18.67,6.63Z"/></svg>