<?xml version="1.0" encoding="utf-8"?>
<svg id="Layer_1" data-name="Layer 1" xmlns="http://www.w3.org/2000/svg" viewBox="0 0 43.55 57.98"><defs><style>.cls-1{fill:#29b1b7;}.cls-2{fill:#29b1b7;}</style></defs><title>storage</title><path class="cls-1" d="M634.28,379.88h-42a.77.77,0,0,1-.76-.77V364.58a.76.76,0,0,1,.76-.76h42a.76.76,0,0,1,.76.76v14.53a.77.77,0,0,1-.76.77M593,378.35h40.49v-13H593Z" transform="translate(-591.49 -363.82)"/><path class="cls-2" d="M626.61,375.65a3.81,3.81,0,1,1,3.81-3.8,3.81,3.81,0,0,1-3.81,3.8m0-6.08a2.28,2.28,0,1,0,2.28,2.28,2.28,2.28,0,0,0-2.28-2.28" transform="translate(-591.49 -363.82)"/><rect class="cls-1" x="6.02" y="7.26" width="3.53" height="1.53"/><rect class="cls-1" x="11.27" y="7.26" width="3.53" height="1.53"/><rect class="cls-1" x="16.52" y="7.26" width="3.53" height="1.53"/><path class="cls-1" d="M630.89,384.16H595.64a.77.77,0,0,1-.77-.76v-4.29a.77.77,0,0,1,.77-.76h35.25a.76.76,0,0,1,.77.76v4.29a.76.76,0,0,1-.77.76m-34.49-1.53h33.73v-2.75H596.4Z" transform="translate(-591.49 -363.82)"/><path class="cls-1" d="M634.28,398.69h-42a.76.76,0,0,1-.76-.76V383.4a.76.76,0,0,1,.76-.77h42a.76.76,0,0,1,.76.77v14.53a.76.76,0,0,1-.76.76M593,397.16h40.49v-13H593Z" transform="translate(-591.49 -363.82)"/><path class="cls-1" d="M626.61,394.47a3.81,3.81,0,1,1,3.81-3.81,3.82,3.82,0,0,1-3.81,3.81m0-6.08a2.28,2.28,0,1,0,2.28,2.27,2.28,2.28,0,0,0-2.28-2.27" transform="translate(-591.49 -363.82)"/><rect class="cls-1" x="6.02" y="26.08" width="3.53" height="1.53"/><rect class="cls-2" x="11.27" y="26.08" width="3.53" height="1.53"/><rect class="cls-1" x="16.52" y="26.08" width="3.53" height="1.53"/><path class="cls-1" d="M630.89,403H595.64a.77.77,0,0,1-.77-.77v-4.28a.78.78,0,0,1,.77-.77h35.25a.77.77,0,0,1,.77.77v4.28a.76.76,0,0,1-.77.77m-34.49-1.53h33.73v-2.76H596.4Z" transform="translate(-591.49 -363.82)"/><path class="cls-1" d="M634.28,417.51h-42a.76.76,0,0,1-.76-.77V402.21a.76.76,0,0,1,.76-.76h42a.76.76,0,0,1,.76.76v14.53a.76.76,0,0,1-.76.77M593,416h40.49V403H593Z" transform="translate(-591.49 -363.82)"/><path class="cls-2" d="M626.61,413.28a3.81,3.81,0,1,1,3.81-3.8,3.81,3.81,0,0,1-3.81,3.8m0-6.08a2.28,2.28,0,1,0,2.28,2.28,2.28,2.28,0,0,0-2.28-2.28" transform="translate(-591.49 -363.82)"/><rect class="cls-1" x="6.02" y="44.9" width="3.53" height="1.53"/><rect class="cls-1" x="11.27" y="44.9" width="3.53" height="1.53"/><rect class="cls-2" x="16.52" y="44.9" width="3.53" height="1.53"/><path class="cls-1" d="M630.89,421.79H595.64a.77.77,0,0,1-.77-.76v-4.29a.77.77,0,0,1,.77-.76h35.25a.76.76,0,0,1,.77.76V421a.76.76,0,0,1-.77.76m-34.49-1.52h33.73v-2.76H596.4Z" transform="translate(-591.49 -363.82)"/></svg>