<?xml version="1.0" encoding="utf-8"?>
<svg id="Layer_1" data-name="Layer 1" xmlns="http://www.w3.org/2000/svg" xmlns:xlink="http://www.w3.org/1999/xlink" viewBox="0 0 110 120"><defs><style>.cls-1{fill:url(#linear-gradient);}.cls-2{fill:url(#linear-gradient-2);}.cls-3{fill:url(#linear-gradient-3);}.cls-4{fill:url(#linear-gradient-4);}</style><linearGradient id="linear-gradient" x1="2.31" y1="60" x2="107.69" y2="60" gradientUnits="userSpaceOnUse"><stop offset="0" stop-color="#0dafdd"/><stop offset="1" stop-color="#03aeea"/></linearGradient><linearGradient id="linear-gradient-2" x1="76.39" y1="21.04" x2="79.46" y2="21.04" xlink:href="#linear-gradient"/><linearGradient id="linear-gradient-3" x1="85.51" y1="21.04" x2="88.58" y2="21.04" xlink:href="#linear-gradient"/><linearGradient id="linear-gradient-4" x1="94.62" y1="21.04" x2="97.7" y2="21.04" xlink:href="#linear-gradient"/></defs><title>icons</title><path class="cls-1" d="M106.16,13.47H3.84A1.54,1.54,0,0,0,2.31,15v90a1.54,1.54,0,0,0,1.53,1.54H106.16a1.54,1.54,0,0,0,1.53-1.54V15A1.54,1.54,0,0,0,106.16,13.47ZM61.8,50.26,77.12,63.11a11.6,11.6,0,0,0-4.87,5.35L56.87,55.51A8.62,8.62,0,0,0,61.8,50.26Zm-8.15,3.38a6.11,6.11,0,1,1,6.11-6.11A6.12,6.12,0,0,1,53.65,53.64ZM82.73,64.33A8.71,8.71,0,1,1,74,73,8.71,8.71,0,0,1,82.73,64.33ZM73.1,79.25a11.47,11.47,0,0,0,7.58,5.06L59.12,103.46H45.86Zm31.52,24.21H63L84.51,84.34a11.42,11.42,0,0,0-1.82-22.69,11.06,11.06,0,0,0-3,.4L62.24,47.37a8.58,8.58,0,0,0-15-5.58H35l-5.55-5.56H20l-6,6L15.81,44l5.26-5.25h7.32l4.81,4.81V51.8l-4.42,4.41H21.07l-4.95-4.94L14.36,53,20,58.71h9.78l5.25-5.25H47.42a8.57,8.57,0,0,0,6.23,2.68h.09L71.46,71.06a11.05,11.05,0,0,0-.18,2,11.34,11.34,0,0,0,.65,3.79l-30,26.6H5.38V16.54h62V26.1H11.56a1.4,1.4,0,0,0,0,2.8H98.44a1.4,1.4,0,1,0,0-2.8H70.23V16.54h34.39ZM45.76,51H35.69V44.28h10A8.57,8.57,0,0,0,45.76,51Z"/><path class="cls-2" d="M77.93,23a1.54,1.54,0,0,0,1.53-1.53v-.79a1.54,1.54,0,1,0-3.07,0v.79A1.54,1.54,0,0,0,77.93,23Z"/><path class="cls-3" d="M87,23a1.54,1.54,0,0,0,1.54-1.53v-.79a1.54,1.54,0,1,0-3.07,0v.79A1.54,1.54,0,0,0,87,23Z"/><path class="cls-4" d="M96.16,23h0a1.54,1.54,0,0,0,1.54-1.53v-.79a1.54,1.54,0,0,0-1.54-1.54h0a1.55,1.55,0,0,0-1.54,1.54v.79A1.55,1.55,0,0,0,96.16,23Z"/></svg>