<?xml version="1.0" encoding="utf-8"?>
<svg id="Layer_1" data-name="Layer 1" xmlns="http://www.w3.org/2000/svg" xmlns:xlink="http://www.w3.org/1999/xlink" viewBox="0 0 110 120"><defs><style>.cls-1{fill:url(#linear-gradient);}</style><linearGradient id="linear-gradient" x1="8.93" y1="60" x2="101.07" y2="60" gradientUnits="userSpaceOnUse"><stop offset="0" stop-color="#5cb273"/><stop offset="1" stop-color="#5bb573"/></linearGradient></defs><title>icons</title><path class="cls-1" d="M88.15,30.54a12.79,12.79,0,0,0-3.24.41L64.52,13.85A9.91,9.91,0,0,0,47.23,7.41H33.07L26.66,1H15.83L8.93,7.9l2,2,6-6.06h8.45L31,9.43V19l-5.1,5.1H17l-5.7-5.71-2,2,6.55,6.55H27.11l6.06-6.05H47.43A9.9,9.9,0,0,0,54.6,24h.11L75.39,41.38a12.77,12.77,0,0,0-.06,3.75L49.16,65a13.1,13.1,0,0,0-4.62-.83A13.27,13.27,0,0,0,33.38,84.6v22.55H31.66a5.6,5.6,0,0,0-5.59,5.59v.67A5.6,5.6,0,0,0,31.66,119H57.42A5.6,5.6,0,0,0,63,113.41v-.67a5.6,5.6,0,0,0-5.59-5.59H55.7V84.6a13.19,13.19,0,0,0,2.12-7.19c0-.33,0-.65,0-1L84.34,55.81a12.65,12.65,0,0,0,3.81.58,12.93,12.93,0,0,0,0-25.85ZM33.9,18V10.29H45.42A9.76,9.76,0,0,0,44.68,14a9.89,9.89,0,0,0,.83,4Zm13.66-4a7,7,0,1,1,7,7.05A7.05,7.05,0,0,1,47.56,14Zm10.76,9.19A9.93,9.93,0,0,0,64,17.18l17.87,15a12.92,12.92,0,0,0-5.6,6.19ZM44.54,67a10.39,10.39,0,0,1,8.29,16.67h0a10.37,10.37,0,0,1-16.56,0h0A10.39,10.39,0,0,1,44.54,67Zm15.59,45.74v.67a2.71,2.71,0,0,1-2.71,2.71H31.66A2.71,2.71,0,0,1,29,113.41v-.67A2.71,2.71,0,0,1,31.66,110H57.42A2.71,2.71,0,0,1,60.13,112.74Zm-23.87-5.59V87.78a13.23,13.23,0,0,0,16.56,0v19.37Zm20.9-33.87A13.34,13.34,0,0,0,52,66.42L76.11,48.16a13,13,0,0,0,5.27,6.31Zm31-19.77a10,10,0,1,1,10-10A10.06,10.06,0,0,1,88.15,53.51Z"/></svg>