<?xml version="1.0" encoding="utf-8"?>
<svg id="Layer_1" data-name="Layer 1" xmlns="http://www.w3.org/2000/svg" viewBox="0 0 42.9 57.98"><defs><style>.cls-1{fill:#29b1b7;}.cls-2{fill:#29b1b7;}</style></defs><title>microchip</title><path class="cls-1" d="M214.44,426.06H173.16a.81.81,0,0,1-.81-.8V385.21a.79.79,0,0,1,.3-.62l8.11-6.68v-9a.81.81,0,0,1,.81-.81h32.87a.81.81,0,0,1,.81.81v56.36a.8.8,0,0,1-.81.8M174,424.45h39.66V369.71H182.38v8.58a.79.79,0,0,1-.3.62L174,385.59Z" transform="translate(-172.35 -368.09)"/><rect class="cls-1" x="13.6" y="0.81" width="1.62" height="9.39"/><rect class="cls-1" x="19.18" y="0.81" width="1.62" height="9.39"/><rect class="cls-1" x="24.76" y="0.81" width="1.62" height="9.39"/><rect class="cls-1" x="30.34" y="0.81" width="1.62" height="9.39"/><rect class="cls-1" x="35.92" y="0.81" width="1.62" height="9.39"/><path class="cls-1" d="M209.83,420.63H177.69a.81.81,0,0,1-.81-.81v-24.6a.81.81,0,0,1,.81-.81h32.14a.81.81,0,0,1,.8.81v24.6a.81.81,0,0,1-.8.81M178.5,419H209V396H178.5Z" transform="translate(-172.35 -368.09)"/><rect class="cls-2" x="11.66" y="34.02" width="19.49" height="1.62"/><rect class="cls-1" x="11.66" y="38.62" width="19.49" height="1.62"/><rect class="cls-2" x="11.66" y="43.23" width="19.49" height="1.62"/></svg>