<?xml version="1.0" encoding="utf-8"?>
<svg id="Layer_1" data-name="Layer 1" xmlns="http://www.w3.org/2000/svg" xmlns:xlink="http://www.w3.org/1999/xlink" viewBox="0 0 110 120"><defs><style>.cls-1{fill:url(#linear-gradient);}.cls-2{fill:url(#linear-gradient-2);}.cls-3{fill:url(#linear-gradient-3);}.cls-4{fill:url(#linear-gradient-4);}.cls-5{fill:url(#linear-gradient-5);}.cls-6{fill:url(#linear-gradient-6);}.cls-7{fill:url(#linear-gradient-7);}.cls-8{fill:url(#linear-gradient-8);}.cls-9{fill:url(#linear-gradient-9);}.cls-10{fill:url(#linear-gradient-10);}</style><linearGradient id="linear-gradient" y1="68.27" x2="110" y2="68.27" gradientUnits="userSpaceOnUse"><stop offset="0" stop-color="#43b394"/><stop offset="1" stop-color="#36a199"/></linearGradient><linearGradient id="linear-gradient-2" x1="14.65" y1="94.27" x2="32.19" y2="94.27" xlink:href="#linear-gradient"/><linearGradient id="linear-gradient-3" x1="41.49" y1="94.27" x2="48.76" y2="94.27" xlink:href="#linear-gradient"/><linearGradient id="linear-gradient-4" x1="54.72" y1="94.27" x2="61.99" y2="94.27" xlink:href="#linear-gradient"/><linearGradient id="linear-gradient-5" x1="67.94" y1="94.27" x2="75.22" y2="94.27" xlink:href="#linear-gradient"/><linearGradient id="linear-gradient-6" x1="81.17" y1="94.27" x2="88.44" y2="94.27" xlink:href="#linear-gradient"/><linearGradient id="linear-gradient-7" x1="67.68" y1="24.44" x2="75.4" y2="24.44" xlink:href="#linear-gradient"/><linearGradient id="linear-gradient-8" x1="60.57" y1="24.44" x2="75.12" y2="24.44" xlink:href="#linear-gradient"/><linearGradient id="linear-gradient-9" x1="90.75" y1="24.44" x2="98.47" y2="24.44" xlink:href="#linear-gradient"/><linearGradient id="linear-gradient-10" x1="91.03" y1="24.44" x2="105.58" y2="24.44" xlink:href="#linear-gradient"/></defs><title>icons</title><path class="cls-1" d="M108.5,74.94H84.57v-52h-3v52H1.5A1.5,1.5,0,0,0,0,76.44V112.1a1.5,1.5,0,0,0,1.5,1.5h107a1.5,1.5,0,0,0,1.5-1.5V76.44A1.5,1.5,0,0,0,108.5,74.94ZM107,110.61H3V77.93H107Z"/><path class="cls-2" d="M23.42,103a8.77,8.77,0,1,0-8.77-8.77A8.77,8.77,0,0,0,23.42,103Zm0-14.55a5.78,5.78,0,1,1-5.77,5.78A5.78,5.78,0,0,1,23.42,88.49Z"/><rect class="cls-3" x="41.49" y="92.77" width="7.27" height="3"/><rect class="cls-4" x="54.72" y="92.77" width="7.27" height="3"/><rect class="cls-5" x="67.94" y="92.77" width="7.27" height="3"/><rect class="cls-6" x="81.17" y="92.77" width="7.27" height="3"/><path class="cls-7" d="M75.4,16.76l-1.35-2.67a11.6,11.6,0,0,0,0,20.71l1.35-2.67a8.61,8.61,0,0,1,0-15.37Z"/><path class="cls-8" d="M74.33,42.49l.79-2.89a15.72,15.72,0,0,1,0-30.31L74.33,6.4a18.71,18.71,0,0,0,0,36.09Z"/><path class="cls-9" d="M90.75,32.13,92.1,34.8a11.6,11.6,0,0,0,0-20.71l-1.35,2.67a8.61,8.61,0,0,1,0,15.37Z"/><path class="cls-10" d="M102.58,24.44A15.74,15.74,0,0,1,91,39.6l.79,2.89a18.71,18.71,0,0,0,0-36.09L91,9.29A15.74,15.74,0,0,1,102.58,24.44Z"/></svg>